<?xml version="1.0" encoding="utf-8"?>
<svg viewBox="337.8000183105469 949.0001831054688 284.8000183105469 157.89984130859375" width="284.8000183105469" height="157.89984130859375" xmlns="http://www.w3.org/2000/svg"><path fill="#CCCCCC" d="M540.7,1106.9c-0.1,0-0.1,0-0.2,0c-1.8-0.1-3.2-1.5-3.3-3.2l-8.7-109.2l-7.3,84.2&#10;&#9;&#9;&#9;&#9;c-0.2,1.8-1.7,3.2-3.5,3.2c0,0,0,0,0,0c-1.8,0-3.3-1.4-3.5-3.2l-6.2-66.3l-6.8,48.5c-0.2,1.7-1.6,2.9-3.3,3&#10;&#9;&#9;&#9;&#9;c-1.7,0.1-3.2-1.1-3.5-2.8l-5.6-26.1l-1.6,7.2c-0.3,1.6-1.8,2.8-3.4,2.8h-146v-7h143.2l4.4-20.2c0.3-1.6,1.8-2.8,3.4-2.8&#10;&#9;&#9;&#9;&#9;c0,0,0,0,0,0c1.6,0,3.1,1.2,3.4,2.8l4.9,22.7l8.2-58.5c0.2-1.8,1.7-3,3.5-3c1.8,0,3.2,1.4,3.4,3.2l5.4,57.5l7.6-87.5&#10;&#9;&#9;&#9;&#9;c0.2-1.8,1.7-3.2,3.5-3.2c0,0,0,0,0,0c1.8,0,3.3,1.4,3.5,3.2l9.8,123.7l10.2-58c0.3-1.6,1.6-2.8,3.3-2.9c1.7-0.1,3.1,1,3.5,2.6&#10;&#9;&#9;&#9;&#9;l8.9,32.5l8.8-13.5c0.6-1,1.8-1.6,2.9-1.6h43v7h-41.1l-12,18.4c-0.8,1.2-2.1,1.8-3.5,1.6c-1.4-0.2-2.5-1.2-2.8-2.5l-6.9-25&#10;&#9;&#9;&#9;&#9;l-12.3,69.7C543.8,1105.7,542.4,1106.9,540.7,1106.9z" transform="matrix(1, 0, 0, 1, 0, 0)"/></svg>